/* XPM */
static char *east_xpm[] = {
/* width height num_colors chars_per_pixel */
"16 16 4 1",
"0 c #161616",
"1 c #262626",
"2 c #383838",
"3 c #6c6c6c",
"0001112222110000",
"0011222332211000",
"0112223332221100",
"1222333333322110",
"1223333223332211",
"1233332223332211",
"1233332223332211",
"1232333333323211",
"1122333333322211",
"0112223333222110",
"0011222222211100",
"0001112222110000",
"0000111111100000",
"0000011111000000",
"0000001110000000",
"0000000000000000"
};
