/* XPM */
static char *north_xpm[] = {
/* width height num_colors chars_per_pixel */
"16 16 4 1",
"0 c #1b1b1b",
"1 c #2a2a2a",
"2 c #444444",
"3 c #767676",
"0001112221110000",
"0011222332211000",
"0112223332221100",
"0122233333222110",
"1122333223332211",
"1222332223332211",
"1222332223332211",
"1222233333222211",
"1122223333222211",
"0112222333222110",
"0011222222211000",
"0001112221110000",
"0000111111100000",
"0000011111000000",
"0000001110000000",
"0000000000000000"
};
