/* XPM */
static char *south_xpm[] = {
/* width height num_colors chars_per_pixel */
"16 16 4 1",
"0 c #2c2c2c",
"1 c #444444",
"2 c #5e5e5e",
"3 c #787878",
"0001112221110000",
"0011222332211000",
"0112233333221100",
"0122333333322110",
"1123333223332211",
"1233332223332211",
"1233332223332211",
"1232333333323211",
"1122333333322211",
"0112233333222110",
"0011222222211000",
"0001112221110000",
"0000111111100000",
"0000011111000000",
"0000001110000000",
"0000000000000000"
};
