/* XPM */
static char *west_xpm[] = {
/* width height num_colors chars_per_pixel */
"16 16 4 1",
"0 c #1d1d1d",
"1 c #2f2f2f",
"2 c #404040",
"3 c #767676",
"0011112222100000",
"0111222332210000",
"0122223332221000",
"1222333333322100",
"1223333223332210",
"1223332223332210",
"1223332223332210",
"1222333333322210",
"1122233333322210",
"0112222333222110",
"0011122222211100",
"0001111222110000",
"0000111111100000",
"0000011111000000",
"0000001110000000",
"0000000000000000"
};
